<svg xmlns="http://www.w3.org/2000/svg" viewBox="0 0 3813.76 748.88"><defs><style>.cls-1{fill:red;}</style></defs><g id="Layer_2" data-name="Layer 2"><g id="Layer_1-2" data-name="Layer 1"><path d="M3748.06,436.65c37.54,0,65.7,28.16,65.7,65.71,0,37-28.16,65.14-65.7,65.14-37,0-65.7-28.16-65.7-65.14C3682.36,464.81,3711.07,436.65,3748.06,436.65Z"/><path d="M842,181.12H956.32V303.68l92.21-122.56h144.09L1050.73,369.39l152.93,198.2H1059.57L956.32,434V567.59H842Z"/><path d="M1182.77,280.5h110.41V440.06c0,18.21,12.15,33.12,27.61,33.12,16,0,28.15-13.8,28.15-33.12V280.5h110.42V567.59H1348.94V548.82c-17.11,16-38.09,24.28-63.48,24.28-28.16,0-51.9-10.49-72.33-30.91s-30.36-45.83-30.36-75.63Z"/><path d="M1672.46,293.75V280.5h110.41V567.59H1672.46V554.34A113.91,113.91,0,0,1,1609,573.1c-36.44,0-66.81-14.35-91.65-42.51-24.29-28.7-36.43-64-36.43-106.54s12.14-77.86,36.43-106C1542.16,289.33,1572.53,275,1609,275A113.92,113.92,0,0,1,1672.46,293.75Zm-38.65,171.69c20.43,0,37.55-18.21,37.55-42.51,0-22.08-17.12-40.29-37.55-40.29s-37.54,18.21-37.54,40.29C1596.27,447.23,1613.39,465.44,1633.81,465.44Z"/><path d="M1804.93,567.59V153.51h110.41V567.59Z"/><path d="M1992.62,140.26c37.54,0,65.7,28.16,65.7,65.71,0,37-28.16,65.14-65.7,65.14-37,0-65.7-28.16-65.7-65.14C1926.92,168.42,1955.63,140.26,1992.62,140.26Z"/><rect x="1937.41" y="280.5" width="110.42" height="287.09"/><path d="M2069.36,280.5h35.89V226.4h110.42v54.1h52.44V376h-52.44v70.67c0,12.7,9.93,21,23.73,21h29.27v99.93h-57.42c-29.82,0-55.22-8.84-75.64-26.5s-30.36-39.76-30.36-66.26V376h-35.89Z"/><path d="M2276.93,280.5h113.73l42,138.58,43.07-138.58h113.73l-107.66,302c-29.26,77.29-78.95,109.32-163.42,109.32h-7.73V586.35h8.28q43.07,0,61.29-18.21Z"/><path d="M2777.16,292.65c-2.76-10.49-15.46-17.13-29.26-17.13-13.25,0-22.63,5.54-22.63,13.81,0,6.08,3.87,11.05,14.35,15.45l15.46,5.54c9.39,2.75,31.47,8.83,43.07,12.69,29.25,9.39,50.24,18.77,74,38.09,23.74,18.22,37,48,37,85,0,38.65-13.8,69.57-40.86,92.76-27.05,22.63-62.38,34.22-106,34.22-40.85,0-76.18-9.93-106.55-29.81-29.81-19.87-48.58-46.37-56.86-78.95l116.49-19.86c4.41,16,23.74,28.14,47.48,28.14,17.67,0,32-6.62,32-15.45,0-5-3.31-9.39-14.35-13.81l-14.36-5.52a190.59,190.59,0,0,0-20.43-7.17l-21-6.62c-30.92-11.05-50.8-19.88-75.64-39.21-24.29-19.32-38.09-48.58-38.09-86.12,0-37,12.14-66.25,37-88.89s57.41-34.23,97.71-34.23c35.89,0,67.36,9.39,94.41,27.61s44.17,41.4,50.24,70.67Z"/><path d="M2931.17,424.05q0-63,44.72-106c29.81-28.72,66.8-43.07,111.52-43.07s81.71,14.35,111.53,43.07,44.71,64,44.71,106-14.9,77.28-44.71,106-66.8,43.05-111.53,43.05-81.71-14.35-111.52-43.05S2931.17,466,2931.17,424.05Zm127.53,29.26a40.33,40.33,0,0,0,57.42,0c16-17.13,16-42,0-58-16-17.11-41.4-17.11-57.42,0C3042.69,411.34,3042.69,436.18,3058.7,453.31Z"/><path d="M3404.17,280.5H3455v90.55h-50.79V567.59H3293.75V371.05h-36.44V280.5h36.44V255.66q0-43.89,34.78-72.89c23.74-19.32,52.45-29.26,87.23-29.26h39.75v99.93h-28.16c-13.25,0-23.18,7.73-23.18,17.13Z"/><path d="M3403.06,280.5h93.83V226.4h110.42v54.1h52.45V376h-52.45v70.67c0,12.7,9.94,21,23.74,21h29.26v99.93h-57.42c-29.81,0-55.2-8.84-75.63-26.5s-30.37-39.76-30.37-66.26V376h-93.83Z"/><polygon points="0 309.87 0.01 309.88 0.01 309.87 0 309.87"/><polygon points="7.47 451.92 96.86 503.56 7.47 555.2 7.47 451.92"/><polygon points="104.31 619.75 14.92 568.11 104.31 516.48 104.31 619.75"/><polygon points="96.86 374.43 7.47 426.06 7.47 322.79 96.86 374.43"/><path d="M17.13,311.13l87.18,50.41v0Z"/><polygon points="104.31 387.34 104.31 490.64 102.11 489.39 14.89 439.01 14.92 438.98 104.31 387.34"/><polygon points="96.86 245.32 7.47 296.96 7.47 193.69 96.86 245.32"/><polygon points="14.92 309.87 104.31 258.24 104.31 361.54 17.13 311.13 14.92 309.87"/><polygon points="104.31 129.1 104.31 232.41 14.92 180.77 104.31 129.1"/><polygon points="208.64 568.11 119.22 619.75 119.22 516.48 208.64 568.11"/><polygon points="216.09 581.03 216.09 684.3 126.67 632.66 216.09 581.03"/><polygon points="208.64 439.01 119.22 490.64 119.22 387.34 208.64 439.01"/><polygon points="216.09 451.92 216.09 555.2 126.67 503.56 216.09 451.92"/><polygon points="119.22 361.51 119.22 258.24 208.64 309.87 119.22 361.51"/><polygon points="216.09 322.79 216.09 426.09 126.67 374.43 216.09 322.79"/><polygon points="208.64 180.77 119.22 232.41 119.22 129.1 208.64 180.77"/><polygon points="216.09 193.69 216.09 296.96 126.67 245.32 216.09 193.69"/><polygon points="216.09 64.55 216.09 167.85 126.67 116.19 216.09 64.55"/><polygon points="320.39 632.66 231 684.33 231 581.03 320.39 632.66"/><polygon points="327.84 645.58 327.84 748.88 238.45 697.25 327.84 645.58"/><polygon points="320.39 503.56 231 555.2 231 451.92 320.39 503.56"/><polygon points="327.84 516.48 327.84 619.75 238.45 568.11 327.84 516.48"/><polygon points="231 322.79 320.39 374.43 231 426.09 231 322.79"/><polygon points="327.84 387.34 327.84 490.64 238.45 439.01 327.84 387.34"/><polygon points="320.39 245.32 231 296.96 231 193.69 320.39 245.32"/><polygon points="327.84 258.24 327.84 361.51 238.45 309.87 327.84 258.24"/><polygon points="320.39 116.19 231 167.85 231 64.55 320.39 116.19"/><polygon points="327.84 129.1 327.84 232.41 238.45 180.77 327.84 129.1"/><polygon points="327.84 0 327.84 103.27 238.45 51.64 327.84 0"/><polygon points="432.17 697.25 342.75 748.88 342.75 645.58 432.17 697.25"/><polygon points="342.75 516.48 432.17 568.11 342.75 619.75 342.75 516.48"/><polygon points="439.62 581.03 439.62 684.3 350.2 632.66 439.62 581.03"/><polygon points="432.17 439.01 342.75 490.64 342.75 387.34 432.17 439.01"/><polygon points="439.62 555.2 350.2 503.56 439.62 451.92 439.62 555.2"/><polygon points="432.17 309.87 342.75 361.51 342.75 258.24 432.17 309.87"/><polygon points="439.62 426.09 350.2 374.43 439.62 322.79 439.62 426.09"/><polygon points="342.75 129.1 432.17 180.77 342.75 232.41 342.75 129.1"/><polygon points="439.62 193.69 439.62 296.96 350.2 245.32 439.62 193.69"/><polygon points="432.17 51.64 342.75 103.27 342.75 0 432.17 51.64"/><polygon points="439.62 64.55 439.62 167.85 350.2 116.19 439.62 64.55"/><polygon points="655.7 568.11 566.28 619.75 566.28 516.48 655.7 568.11"/><polygon class="cls-1" points="663.15 322.79 663.15 426.06 573.76 374.43 663.15 322.79"/><polygon points="655.7 180.77 566.28 232.41 566.28 129.1 655.7 180.77"/></g></g></svg>